<svg xmlns="http://www.w3.org/2000/svg" fill="black" viewBox="0 0 512 512">
	<path d="M394.501,220.156L189.161,14.817c-19.757-19.756-51.903-19.757-71.662,0c-9.571,9.571-14.843,22.297-14.843,35.832
		c0,13.535,5.271,26.26,14.843,35.831l169.508,169.508L117.499,425.496c-9.571,9.571-14.843,22.297-14.843,35.832
		c0,13.535,5.271,26.26,14.843,35.831C127.071,506.73,139.795,512,153.331,512c13.535,0,26.259-5.27,35.831-14.841l205.339-205.34
		c9.571-9.571,14.843-22.297,14.843-35.831C409.343,242.453,404.072,229.728,394.501,220.156z M380.075,277.393L174.736,482.732
		c-5.717,5.718-13.32,8.867-21.405,8.867c-8.085,0-15.689-3.149-21.406-8.867c-5.718-5.718-8.868-13.321-8.868-21.406
		c0-8.085,3.15-15.688,8.868-21.406l176.72-176.721c3.983-3.983,3.983-10.441,0-14.424L131.925,72.054
		c-5.718-5.718-8.868-13.321-8.868-21.406s3.15-15.688,8.868-21.406c5.717-5.718,13.319-8.867,21.406-8.867
		c8.086,0,15.688,3.15,21.405,8.868l205.339,205.338c5.718,5.718,8.868,13.321,8.868,21.406
		C388.943,264.072,385.793,271.675,380.075,277.393z"/>
</svg>